<?xml version="1.0" encoding="utf-8"?>
<!-- Generator: Adobe Illustrator 22.1.0, SVG Export Plug-In . SVG Version: 6.00 Build 0)  -->
<svg version="1.1" id="Layer_1" xmlns="http://www.w3.org/2000/svg" xmlns:xlink="http://www.w3.org/1999/xlink" x="0px" y="0px"
	 viewBox="0 0 450 450" style="enable-background:new 0 0 450 450;" xml:space="preserve">
<style type="text/css">
	.st0{fill:none;stroke:#FFFFFF;stroke-miterlimit:10;}
	.st1{fill:none;stroke:#FFFFFF;stroke-linecap:round;stroke-miterlimit:10;}
	.st2{stroke:#FFFFFF;stroke-miterlimit:10;}
</style>
<g>
	<g id="XMLID_1_">
		<g>
			<path d="M313.4,270.2l-8.7,14.8l-1.6-1.4c2.3-4,4.2-9,5.2-14c0.5-2.7,1.1-5.3,1.4-8C310.8,262.4,312.4,265.6,313.4,270.2z"/>
			<path d="M313.4,270.2c1.3,6,1.8,14.4-0.5,22.4c-5.3,19-20.6,30.3-36.8,32.1c6.1-4.5,11.5-10.5,15.8-17.8l12.9-21.9L313.4,270.2z"
				/>
			<path d="M270.7,261.4L270.7,261.4l-8.9-7.3C264.2,255.2,267.1,256.7,270.7,261.4z"/>
			<path d="M304.7,285l-12.9,21.9c-4.3,7.3-9.6,13.3-15.8,17.8c-9.8,1.1-20-1.3-28.6-7.5c-9.3-6.7-17.6-13.8-22.7-22.9
				c-5.2,9.1-13.1,17.8-22.7,22.9c-11,5.9-22.7,6-32.3,4c-4.3-4-8.2-8.7-11.4-14.2l-14.1-24l1.3-1.1c1.8,3.2,4.1,5.8,6.8,7.4
				c9.9,6.2,18.5-4.9,25.7-19.7c1.1-2.2,1.4-3.6,2.4-5.5l0,0l7.2-9.3l0,0c14.8-7.8,29.1-7.9,37.1,0c8-7.9,22.1-7.9,37.2-0.6l8.9,7.2
				l0,0c5.6,7.9,7.9,18.9,14.5,26.9c6.2,7.6,13.1,3.4,17.8-4.8L304.7,285z"/>
			<path d="M187.5,254.7l-7.2,9.3c0.4-1.1,1.2-3.6,3.1-5.7C185.2,256.1,186.8,255.2,187.5,254.7z"/>
			<path d="M347.5,191.2v90.6c0,13.6-3.5,26.8-10,37.8l-45.8,77.8c-10.1,17.1-26.3,27.3-43.7,27.3h-46.3
				c-17.3,0-33.6-10.2-43.7-27.3l-45.8-77.8c-6.5-11-10-24.3-10-37.8v-90.6c0,13.6,3.5,26.8,10,37.8l24.4,41.5
				c-3.8,16.4,2.8,35.3,12.5,42.2c3.3,2.5,10.8,6.4,20.3,8.3c9.2,8.4,20.5,13.1,32.2,13.1h46.3c10,0,19.6-3.4,27.9-9.5
				c16.3-1.8,31.5-13.1,36.8-32.1c2.3-8,1.8-16.3,0.5-22.4l24.2-41.2C344,218,347.5,204.7,347.5,191.2z"/>
			<path d="M144.1,282.9l-7.2-12.3c0.3-1.2,0.6-2.3,0.9-3.4c0.6-1.7,1.3-3.6,2.6-5.4c0.2,7.6,2,14.7,5,20L144.1,282.9z"/>
			<path d="M144.1,282.9l14.1,24c3.2,5.5,7.1,10.3,11.4,14.2c-9.5-1.9-17.1-5.9-20.3-8.3c-9.7-6.9-16.2-25.8-12.5-42.2L144.1,282.9z
				"/>
		</g>
		<g>
			<path class="st0" d="M136.9,270.5L112.4,229c-6.5-11-10-24.3-10-37.8v90.6c0,13.6,3.5,26.8,10,37.8l45.8,77.8
				c10.1,17.1,26.3,27.3,43.7,27.3h46.3c17.3,0,33.6-10.2,43.7-27.3l45.8-77.8c6.5-11,10-24.3,10-37.8v-90.6
				c0,13.6-3.5,26.8-10,37.8l-24.2,41.2"/>
			<path class="st0" d="M276,324.6c-8.3,6.1-17.9,9.5-27.9,9.5h-46.3c-11.8,0-23-4.7-32.2-13.1"/>
			<path class="st0" d="M149.3,312.7c3.3,2.5,10.8,6.4,20.3,8.3c9.6,2,21.2,1.9,32.3-4c9.7-5.1,17.6-13.8,22.7-22.9
				c5.2,9.1,13.4,16.2,22.7,22.9c8.6,6.2,18.8,8.6,28.6,7.5c16.3-1.8,31.5-13.1,36.8-32.1"/>
			<path class="st0" d="M261.9,254.1c-15.1-7.3-29.1-7.3-37.2,0.6c-8-7.9-22.4-7.8-37.1,0"/>
			<path class="st0" d="M312.9,292.5c2.3-8,1.8-16.3,0.5-22.4c-1-4.5-2.5-7.8-3.8-8.6c-0.3,2.7-0.9,5.3-1.4,8c-1,5-2.8,10-5.2,14
				c-4.7,8.1-11.6,12.3-17.8,4.8c-6.6-8-8.9-19-14.5-26.9"/>
			<path class="st0" d="M180.3,264c-1,2-1.3,3.3-2.4,5.5c-7.2,14.7-15.8,25.8-25.7,19.7c-2.7-1.7-5-4.2-6.8-7.4
				c-3.1-5.3-4.8-12.4-5-20c-1.3,1.8-2,3.7-2.6,5.4c-0.4,1.1-0.7,2.3-0.9,3.4c-3.8,16.4,2.8,35.3,12.5,42.2"/>
			<path class="st1" d="M180.3,264c0.4-1.1,1.2-3.6,3.1-5.7c1.8-2.1,3.5-3.1,4.1-3.6"/>
			<path class="st1" d="M261.9,254.1c2.3,1,5.3,2.6,8.9,7.3"/>
		</g>
	</g>
</g>
<g>
	<path class="st2" d="M276.3,68.4c-17.8-17.7-28.8-33.5-32.2-43.7c-8.5,5.8-8.1,14.3-11.2,20.6c-4.1-6-1.8-20.6-2.4-20.6
		c-3.4,2.9-13.5,8.8-11.9,20.4c-6.8-1.4-6.6-16-6.8-20.4c-15.4,10.2-7.2,17.4-37.3,36.4c-37.6,25.9-76.1,36.3-75,116.5
		c0.6,50.7,10.5,59.1,25.8,70l-1.6-52.9c3.1-25.8,15-72.8,63.5-63.4c3.6,0.7,31.9,3.1,37.3,3.1c7.7,0,25.5-0.4,45.8-3.1
		c30.5-4.1,55.7,25,57.7,63.4l-2.5,54c11.9-10.2,25-26.1,25-76.9C350.5,89,308.5,85.9,276.3,68.4z"/>
</g>
</svg>
