<?xml version="1.0" encoding="utf-8"?>
<!-- Generator: Adobe Illustrator 22.1.0, SVG Export Plug-In . SVG Version: 6.00 Build 0)  -->
<svg version="1.1" id="Layer_1" xmlns="http://www.w3.org/2000/svg" xmlns:xlink="http://www.w3.org/1999/xlink" x="0px" y="0px"
	 viewBox="0 0 1366 768" style="enable-background:new 0 0 1366 768;" xml:space="preserve">
<style type="text/css">
	.st0{fill:none;stroke:#FFFFFF;stroke-miterlimit:10;}
	.st1{fill:none;stroke:#FFFFFF;stroke-linecap:round;stroke-miterlimit:10;}
</style>
<g>
	<g id="XMLID_1_">
		<g>
			<path d="M702.2,457c3.8,5.3,8.4,10,13.5,13.8c-11.2-1.9-20.1-5.7-24-8.1c-11.5-6.8-19.2-25-14.7-41l8.5,12L702.2,457z"/>
			<path d="M691.8,462.7c3.8,2.4,12.8,6.2,24,8.1c10.8,8.1,24.1,12.7,38,12.7h54.6c11.8,0,23.1-3.3,32.9-9.2
				c19.2-1.7,37.2-12.7,43.4-31.2c2.7-7.8,2.2-15.9,0.6-21.7l28.5-40c7.7-10.7,11.8-23.6,11.8-36.8v88c0,13.2-4.1,26-11.8,36.8
				l-54,75.6c-11.9,16.6-31.1,26.5-51.5,26.5h-54.6c-20.4,0-39.6-9.9-51.5-26.5l-54-75.6c-7.7-10.7-11.8-23.6-11.8-36.8v-88
				c0,13.2,4.1,26,11.8,36.8l28.8,40.3C672.6,437.7,680.3,456,691.8,462.7z"/>
			<path d="M685.6,433.7l-8.5-12c0.3-1.1,0.7-2.2,1.1-3.3c0.7-1.7,1.5-3.5,3.1-5.3c0.2,7.4,2.3,14.3,5.9,19.5L685.6,433.7z"/>
			<path d="M824.5,405.8l10.5,7l0,0c6.6,7.6,9.4,18.4,17.1,26.1c7.4,7.4,15.4,3.3,21-4.6l1.9,1.4L859.8,457
				c-5,7.1-11.4,12.9-18.6,17.3c-11.6,1-23.6-1.3-33.7-7.3c-11-6.5-20.7-13.4-26.8-22.2c-6.1,8.8-15.4,17.2-26.8,22.2
				c-13,5.7-26.7,5.8-38.1,3.9c-5.1-3.8-9.7-8.5-13.5-13.8l-16.6-23.3l1.5-1.1c2.2,3.1,4.9,5.6,8,7.2c11.7,6,21.8-4.8,30.3-19.1
				c1.3-2.2,1.6-3.5,2.8-5.3l0,0l8.5-9l0,0l0,0c17.4-7.6,34.3-7.7,43.8,0C790.1,398.7,806.7,398.7,824.5,405.8z"/>
			<path d="M885.2,421.4c1.6,5.9,2.1,14-0.6,21.7c-6.2,18.5-24.2,29.4-43.4,31.2c7.2-4.4,13.6-10.2,18.6-17.3l15.2-21.2L885.2,421.4
				z"/>
			<path d="M874.9,435.8l-1.9-1.4c2.8-3.9,4.9-8.7,6.1-13.6c0.6-2.6,1.3-5.1,1.6-7.7c1.5,0.8,3.3,3.9,4.5,8.3L874.9,435.8z"/>
			<path d="M835,412.9L835,412.9l-10.5-7C827.2,406.8,830.7,408.3,835,412.9z"/>
			<path d="M736.8,406.3l-8.5,9c0.4-1.1,1.5-3.4,3.6-5.5C734.1,407.7,736,406.8,736.8,406.3z"/>
		</g>
		<g>
			<path class="st0" d="M677.1,421.7l-28.8-40.3c-7.7-10.7-11.8-23.6-11.8-36.8v88c0,13.2,4.1,26,11.8,36.8l54,75.6
				c11.9,16.6,31.1,26.5,51.5,26.5h54.6c20.4,0,39.6-9.9,51.5-26.5l54-75.6c7.7-10.7,11.8-23.6,11.8-36.8v-88
				c0,13.2-4.1,26-11.8,36.8l-28.5,40"/>
			<path class="st0" d="M841.2,474.3c-9.8,6-21.1,9.2-32.9,9.2h-54.6c-13.9,0-27.2-4.5-38-12.7"/>
			<path class="st0" d="M691.8,462.7c3.8,2.4,12.8,6.2,24,8.1c11.4,1.9,25.1,1.8,38.1-3.9c11.4-5,20.7-13.4,26.8-22.2
				c6.1,8.8,15.9,15.7,26.8,22.2c10.2,6.1,22.2,8.4,33.7,7.3c19.2-1.7,37.2-12.7,43.4-31.2"/>
			<path class="st0" d="M824.5,405.8c-17.8-7.1-34.4-7.1-43.8,0.6c-9.5-7.7-26.4-7.6-43.8,0"/>
			<path class="st0" d="M884.6,443.1c2.7-7.8,2.2-15.9,0.6-21.7c-1.2-4.4-3-7.5-4.5-8.3c-0.3,2.6-1,5.1-1.6,7.7
				c-1.2,4.9-3.3,9.7-6.1,13.6c-5.6,7.9-13.6,12-21,4.6c-7.7-7.7-10.5-18.5-17.1-26.1"/>
			<path class="st0" d="M728.2,415.4c-1.2,1.9-1.5,3.2-2.8,5.3c-8.5,14.3-18.6,25.1-30.3,19.1c-3.2-1.6-5.9-4.1-8-7.2
				c-3.6-5.2-5.7-12.1-5.9-19.5c-1.5,1.7-2.4,3.6-3.1,5.3c-0.4,1.1-0.8,2.2-1.1,3.3c-4.5,16,3.2,34.2,14.7,41"/>
			<path class="st1" d="M728.3,415.3c0.4-1.1,1.5-3.4,3.6-5.5c2.1-2.1,4.1-3,4.9-3.5"/>
			<line class="st1" x1="736.8" y1="406.3" x2="736.8" y2="406.3"/>
			<path class="st1" d="M824.5,405.8c2.7,1,6.2,2.5,10.5,7"/>
		</g>
	</g>
</g>
</svg>
