<?xml version="1.0" encoding="utf-8"?>
<!-- Generator: Adobe Illustrator 22.1.0, SVG Export Plug-In . SVG Version: 6.00 Build 0)  -->
<svg version="1.1" id="Layer_1" xmlns="http://www.w3.org/2000/svg" xmlns:xlink="http://www.w3.org/1999/xlink" x="0px" y="0px"
	 viewBox="0 0 1366 768" style="enable-background:new 0 0 1366 768;" xml:space="preserve">
<style type="text/css">
	.st0{fill:#050101;}
	.st1{fill:none;stroke:#FFFFFF;stroke-miterlimit:10;}
	.st2{fill:none;stroke:#000000;stroke-miterlimit:10;}
</style>
<g id="XMLID_1_">
	<g>
		<path class="st0" d="M592.8,231.5c-0.5,3.9-0.8,7.9-0.8,12l48.9,0.3c-2.2-4.1-4.2-8.2-5.8-12.3l0.8-0.1
			c41.8,0,94.5,33.5,95.5,74.1v51.7c-0.1,5.3-0.8,10.4-1.9,15.4c0-0.3,0-0.7,0-1c0.3-4.5,0.4-9,0.4-13.5h-1.4
			C720.9,288,674.5,273,618.5,273c-56,0-102.4,15.2-110.1,85.3H507c0,2.4,0,4.9,0.1,7.3c-0.3-2.7-0.5-5.4-0.6-8.2v-51.9
			C510.5,266.3,553.7,232.5,592.8,231.5z"/>
		<path class="st0" d="M592.8,231.5c4.5-32.4,26.2-57.2,52-57.4c-1.1,0.4-2.2,0.8-3.2,1.4c-14.5,7.8-16.5,31-6.5,56
			c1.6,4.1,3.5,8.2,5.8,12.3l-48.9-0.3C592,239.4,592.3,235.4,592.8,231.5z"/>
		<path class="st0" d="M507,358.3h1.4c-0.4,3.3-0.7,6.7-0.8,10.3c-0.2-1-0.3-2-0.4-3C507,363.1,507,360.7,507,358.3z"/>
		<path class="st0" d="M730,358.3c0,4.5-0.1,9.1-0.4,13.5c-0.2-4.7-0.5-9.2-1-13.5H730z"/>
		<path class="st0" d="M728.5,375.5l0.9,0.1C723.4,456.7,676.1,520,618.5,520c-57,0-104-62-110.7-142l1.4-0.1
			c12.3,15.1,27.5,27.5,44.6,36.5c-2.7,7.9-4.5,16.4-5.2,25.4c4.5-7.5,10.3-14.2,17.1-19.8c16.2,6.6,33.8,10.3,52.2,10.3
			c18.4,0,36-3.6,52.2-10.3c6.8,5.6,12.6,12.3,17.1,19.8c-0.7-8.9-2.5-17.4-5.2-25.4C700,405,715.8,391.6,728.5,375.5z"/>
		<path class="st0" d="M682,414.5c2.7,7.9,4.5,16.4,5.2,25.4c-4.5-7.5-10.3-14.2-17.1-19.8C674.1,418.4,678.1,416.5,682,414.5z"/>
		<path class="st0" d="M682,414.5c-3.9,2-7.9,3.9-11.9,5.6c-14-11.5-32.2-18.4-52.2-18.4c-20,0-38.2,6.9-52.2,18.4
			c-4.1-1.7-8-3.5-11.9-5.6c4.2-12.4,10.7-23.4,18.8-32.1c0.8-1.7,2-3.4,3.3-5.2l83-0.9c1.6,2,2.9,3.9,3.9,5.8
			C671,390.7,677.7,401.8,682,414.5z"/>
		<path class="st0" d="M658.9,376.2l-83,0.9c3.2-4.1,7.7-8.3,13.1-11.9c5.3-3.5,10.6-5.9,15.2-7h10.1c1.5,0.6,2.6,1.5,3.3,2.9
			c0.1,0.1,0.1,0.2,0.2,0.3c0,0,0,0,0,0c0-0.1,0.1-0.2,0.2-0.3c0.7-1.3,1.8-2.3,3.3-2.9h10.1c4.6,1.1,9.9,3.5,15.2,7
			C651.6,368.6,655.8,372.4,658.9,376.2z"/>
		<path class="st0" d="M631.4,358.3h-10.1C623.7,357.2,627.3,357.3,631.4,358.3z"/>
		<path class="st0" d="M614.3,358.3h-10.1C608.3,357.2,611.8,357.2,614.3,358.3z"/>
		<path class="st0" d="M553.8,414.5c3.9,2,7.8,3.9,11.9,5.6c-6.8,5.6-12.6,12.3-17.1,19.8C549.3,430.9,551.1,422.4,553.8,414.5z"/>
	</g>
	<g>
		<path class="st1" d="M729.6,371.8c0,0.3,0,0.7,0,1c1.1-5,1.7-10.1,1.9-15.4v-51.7c-1-40.6-53.7-74.1-95.5-74.1"/>
		<path class="st1" d="M508.4,358.3c7.7-70.1,54.1-85.3,110.1-85.3c56,0,102.4,15,110.1,85.3"/>
		<path class="st1" d="M593,231.5c0,0-0.1,0-0.2,0c-39.2,1-82.4,34.8-86.3,74v51.9c0.1,2.8,0.3,5.5,0.6,8.2"/>
		<path class="st2" d="M730,358.3c0,4.5-0.1,9.1-0.4,13.5c-0.1,1.3-0.1,2.5-0.2,3.8C723.4,456.7,676.1,520,618.5,520
			c-57,0-104-62-110.7-142c-0.3-4.1-0.6-8.3-0.7-12.5c-0.1-2.4-0.1-4.8-0.1-7.3"/>
		<path class="st1" d="M682,414.5c-4.3-12.6-10.9-23.7-19.2-32.5c-1-1.9-2.3-3.8-3.9-5.8c-3.1-3.8-7.3-7.6-12.3-11
			c-5.3-3.5-10.6-5.9-15.2-7c-4.1-1-7.6-1-10.1,0c-1.5,0.6-2.6,1.5-3.3,2.9c-0.1,0.1-0.1,0.2-0.2,0.3c0,0,0,0,0,0
			c0-0.1-0.1-0.2-0.2-0.3c-0.7-1.3-1.8-2.3-3.3-2.9c-2.5-1-6.1-1-10.1,0c-4.6,1.1-9.9,3.5-15.2,7c-5.4,3.6-9.9,7.8-13.1,11.9
			c-1.4,1.8-2.5,3.5-3.3,5.2c-8.1,8.7-14.6,19.6-18.8,32.1c-2.7,7.9-4.5,16.4-5.2,25.4c4.5-7.5,10.3-14.2,17.1-19.8
			c14-11.5,32.2-18.4,52.2-18.4c20,0,38.2,6.9,52.2,18.4c6.8,5.6,12.6,12.3,17.1,19.8C686.5,430.9,684.7,422.4,682,414.5z"/>
		<path class="st1" d="M635.2,231.6c-10-25.1-8-48.2,6.5-56c1-0.6,2.1-1,3.2-1.4c-25.8,0.2-47.5,25-52,57.4c-0.5,3.9-0.8,7.9-0.8,12
			l48.9,0.3C638.7,239.7,636.8,235.6,635.2,231.6z"/>
	</g>
</g>
</svg>
